<svg width="664" height="836" viewBox="0 0 664 836" fill="currentcolor" xmlns="http://www.w3.org/2000/svg">
<path d="M418.947 143.58C426.441 143.58 432.534 137.487 432.534 130V116.42H232.689V130C232.689 137.487 238.784 143.58 246.277 143.58H251.302H413.922H418.947Z" fill="#0DFA45"/>
<path d="M437.659 106.17H467.427V83.5172C467.427 71.1 457.328 60.9969 444.917 60.9969H430.464H234.763H220.306C207.855 60.9969 197.723 71.0984 197.723 83.5172V106.17H227.564H437.659Z" fill="#0DFA45"/>
<path d="M408.798 153.828H256.427V180.989H408.798V153.828Z" fill="#0DFA45"/>
<path d="M378.298 244.42H284.977V490.323H378.298V244.42Z" fill="#0DFA45"/>
<path d="M274.728 490.323V239.295C274.728 236.466 277.023 234.17 279.853 234.17H383.423C386.256 234.17 388.547 236.466 388.547 239.295V490.323H452.055L435.359 374.356C426.837 315.175 418.33 256.097 408.998 191.239H256.227L244.005 276.214C233.587 348.663 223.809 416.669 213.17 490.323H274.728Z" fill="#0DFA45"/>
<path d="M425.337 0H391.761V30.1891C391.761 33.0187 389.466 35.3141 386.638 35.3141H351.323C348.492 35.3141 346.198 33.0187 346.198 30.1891V0H319.039V30.1891C319.039 33.0187 316.744 35.3141 313.914 35.3141H278.663C275.831 35.3141 273.538 33.0187 273.538 30.1891V0H239.888V50.75H425.337V0Z" fill="#0DFA45"/>
<path d="M203.73 500.573V527.878H461.569V500.573H458H457.972H383.423H279.852H207.253H203.73Z" fill="#0DFA45"/>
<path d="M569.644 209.575C569.619 209.584 569.594 209.597 569.567 209.608C567.492 210.481 565.359 211.216 563.178 211.803C562.764 211.917 562.347 212.023 561.927 212.125C561.4 212.255 560.872 212.383 560.338 212.494C559.419 212.687 558.492 212.856 557.558 212.998C557.231 213.048 556.898 213.081 556.569 213.125C555.789 213.228 555.003 213.314 554.209 213.381C553.877 213.408 553.545 213.436 553.208 213.456C552.131 213.525 551.044 213.573 549.948 213.573C548.85 213.573 547.766 213.527 546.683 213.456C546.352 213.436 546.023 213.408 545.694 213.381C544.884 213.314 544.086 213.227 543.289 213.122C542.978 213.081 542.667 213.05 542.356 213.003C541.4 212.859 540.453 212.684 539.514 212.486C539.031 212.384 538.555 212.267 538.077 212.153C537.573 212.031 537.075 211.903 536.577 211.767C536.031 211.619 535.486 211.47 534.945 211.302C534.714 211.231 534.488 211.145 534.256 211.07C533.058 210.68 531.878 210.245 530.713 209.766C530.456 209.659 530.198 209.553 529.944 209.444C527.942 208.58 525.998 207.586 524.117 206.462C523.898 206.334 523.681 206.205 523.466 206.072C523.116 205.858 522.758 205.662 522.413 205.439V217.003H577.492V205.434C575.002 207.059 572.367 208.423 569.644 209.575Z" fill="#0DFA45"/>
<path d="M642.614 227.255H582.62H517.291H457.3V255.811H476.531H623.309H642.614V227.255Z" fill="#0DFA45"/>
<path d="M471.819 524.247H631.638C628.134 499.909 624.75 476.45 621.386 453.116C615.084 409.398 608.842 366.105 601.977 318.267H497.934L471.819 499.589V524.247Z" fill="#0DFA45"/>
<path d="M547.852 203.27C547.861 203.27 547.87 203.272 547.878 203.272C548.564 203.306 549.256 203.325 549.952 203.325C572.181 203.325 590.266 185.209 590.266 162.944C590.266 140.678 572.181 122.562 549.952 122.562C527.689 122.562 509.575 140.678 509.575 162.944C509.575 184.505 526.561 202.173 547.852 203.27Z" fill="#0DFA45"/>
<path d="M601.569 292.161H498.272V308.017H601.569V292.161Z" fill="#0DFA45"/>
<path d="M610.255 281.912C614.627 281.912 618.183 278.325 618.183 273.917V266.062H481.655V273.917C481.655 278.325 485.213 281.912 489.586 281.912H493.145H606.694H610.255Z" fill="#0DFA45"/>
<path d="M494.308 557.528V557.525C490.137 547.988 481.737 541.186 471.894 538.938C471.828 538.923 471.764 538.905 471.697 538.892C470.964 538.73 470.228 538.591 469.483 538.478C469.462 538.477 469.445 538.473 469.427 538.47C468.752 538.372 468.069 538.302 467.384 538.244C467.217 538.23 467.05 538.216 466.881 538.206C466.17 538.158 465.452 538.127 464.731 538.127H200.553C182.75 538.127 168.266 552.609 168.266 570.411V602.697H497.017V570.411C497.017 565.959 496.105 561.628 494.311 557.533C494.308 557.531 494.308 557.528 494.308 557.528Z" fill="#0DFA45"/>
<path d="M638.42 534.497H637.581H637.552H487.491C487.553 534.537 487.609 534.583 487.673 534.622C488.302 535.027 488.92 535.447 489.527 535.883C489.625 535.955 489.725 536.022 489.822 536.094C491.192 537.1 492.498 538.183 493.738 539.341C493.859 539.455 493.981 539.573 494.103 539.692C494.634 540.198 495.15 540.717 495.653 541.25C495.731 541.334 495.809 541.412 495.884 541.495C498.356 544.155 500.492 547.127 502.227 550.35H638.419V534.497H638.42Z" fill="#0DFA45"/>
<path d="M175.744 534.497H25.7234H24.7687V550.35H161.044C164.536 543.784 169.639 538.366 175.744 534.497Z" fill="#0DFA45"/>
<path d="M111.211 203.27C111.219 203.27 111.228 203.272 111.238 203.272C111.925 203.306 112.616 203.325 113.313 203.325C135.581 203.325 153.7 185.209 153.7 162.944C153.7 140.678 135.581 122.562 113.313 122.562C91.0484 122.562 72.9375 140.678 72.9375 162.944C72.9359 184.505 89.9188 202.173 111.211 203.27Z" fill="#0DFA45"/>
<path d="M642.153 560.598H506.116C506.125 560.637 506.131 560.681 506.142 560.722C506.297 561.386 506.436 562.055 506.561 562.728C506.595 562.911 506.628 563.094 506.659 563.278C506.755 563.844 506.836 564.417 506.912 564.992C506.941 565.225 506.973 565.458 507.002 565.691C507.063 566.248 507.108 566.811 507.148 567.372C507.164 567.6 507.187 567.828 507.2 568.056C507.244 568.837 507.27 569.62 507.27 570.411V602.697H663.277V581.578C663.275 570.009 653.8 560.598 642.153 560.598Z" fill="#0DFA45"/>
<path d="M0 581.58V602.698H155.994V570.411C155.994 567.08 156.38 563.798 157.145 560.598H21.0438C9.44063 560.598 0 570.009 0 581.58Z" fill="#0DFA45"/>
<path d="M165.002 292.161H61.6188V308.017H165.002V292.161Z" fill="#0DFA45"/>
<path d="M186.742 255.811H205.975V227.255H145.981H80.6531H20.6594V255.811H39.8922H186.742Z" fill="#0DFA45"/>
<path d="M123.594 212.522C122.739 212.7 121.877 212.856 121.008 212.989C120.609 213.05 120.206 213.092 119.803 213.144C119.083 213.236 118.359 213.316 117.628 213.377C117.272 213.406 116.917 213.436 116.559 213.458C115.484 213.527 114.403 213.573 113.309 213.573C112.211 213.573 111.125 213.527 110.045 213.456C109.714 213.436 109.384 213.408 109.056 213.381C108.247 213.314 107.447 213.227 106.65 213.122C106.339 213.081 106.027 213.05 105.717 213.003C104.759 212.859 103.812 212.684 102.875 212.486C102.392 212.384 101.916 212.267 101.439 212.153C100.936 212.031 100.434 211.903 99.939 211.767C99.3922 211.619 98.8484 211.47 98.3078 211.302C98.0766 211.231 97.8515 211.145 97.6187 211.07C96.4203 210.68 95.2391 210.245 94.0734 209.766C93.8156 209.659 93.5594 209.553 93.3047 209.444C91.3031 208.58 89.3609 207.586 87.4781 206.462C87.2609 206.334 87.0437 206.205 86.8266 206.072C86.4781 205.858 86.1187 205.662 85.775 205.439V217.003H140.856V205.466C136.359 208.394 131.43 210.537 126.241 211.894C126.034 211.948 125.828 212 125.622 212.053C124.95 212.22 124.275 212.384 123.594 212.522Z" fill="#0DFA45"/>
<path d="M173.689 281.912C178.061 281.912 181.619 278.325 181.619 273.917V266.062H45.0172V273.917C45.0172 278.325 48.6016 281.912 53.0078 281.912H56.4953H170.128H173.689Z" fill="#0DFA45"/>
<path d="M31.6375 524.247H191.456V499.589L165.339 318.267H61.2938C54.4235 366.102 48.1844 409.394 41.8859 453.109L31.6375 524.247Z" fill="#0DFA45"/>
<path d="M157.961 768.035C162.844 768.035 167.173 767.482 170.949 766.375C174.79 765.203 178.208 763.706 181.203 761.883C184.198 760.06 186.802 758.009 189.016 755.73C191.294 753.452 193.28 751.206 194.973 748.992C196.014 749.773 196.828 750.978 197.414 752.605C198.065 754.233 198.391 755.893 198.391 757.586C198.391 760.385 197.642 763.348 196.145 766.473C194.647 769.533 192.141 772.365 188.625 774.969C185.109 777.573 180.454 779.721 174.66 781.414C168.866 783.107 161.704 783.953 153.176 783.953C141.587 783.953 131.464 782.195 122.805 778.68C114.146 775.164 106.952 770.184 101.223 763.738C95.4935 757.293 91.1966 749.546 88.332 740.496C85.4674 731.447 84.0352 721.421 84.0352 710.418C84.0352 699.611 85.5 689.715 88.4297 680.73C91.4245 671.746 95.7865 664.031 101.516 657.586C107.31 651.141 114.504 646.128 123.098 642.547C131.691 638.966 141.652 637.176 152.98 637.176C160.663 637.176 167.336 637.794 173 639.031C178.729 640.203 183.482 641.831 187.258 643.914C194.81 648.146 198.586 653.647 198.586 660.418C198.586 665.822 196.275 670.086 191.652 673.211C187.095 676.271 181.073 677.801 173.586 677.801C173.586 673.048 172.837 668.556 171.34 664.324C169.908 660.092 167.596 656.642 164.406 653.973C161.216 651.303 156.952 649.969 151.613 649.969C139.374 649.969 130.552 655.21 125.148 665.691C122.544 670.835 120.624 677.182 119.387 684.734C118.215 692.221 117.629 700.783 117.629 710.418C117.629 720.053 118.345 728.484 119.777 735.711C121.21 742.872 123.521 748.862 126.711 753.68C133.091 763.25 143.508 768.035 157.961 768.035ZM334.816 771.355V782H290.383V716.18C290.383 708.107 289.243 701.596 286.965 696.648C284.751 691.701 280.552 689.227 274.367 689.227C269.94 689.227 266.457 690.691 263.918 693.621C261.379 696.551 259.589 700.392 258.547 705.145C257.505 709.832 256.984 714.845 256.984 720.184V758.367C256.984 763.706 258.221 767.221 260.695 768.914C263.169 770.542 266.75 771.355 271.438 771.355H272.023V782H210.598V771.355H210.988C215.936 771.355 219.777 770.509 222.512 768.816C225.246 767.059 226.613 763.315 226.613 757.586V652.801C226.613 647.918 225.116 644.663 222.121 643.035C219.126 641.408 215.871 640.594 212.355 640.594H210.012V630.047H256.984V662.957C256.984 665.561 256.887 668.361 256.691 671.355C256.561 674.35 256.398 677.117 256.203 679.656C256.073 681.154 255.943 682.651 255.812 684.148C255.682 685.581 255.552 687.013 255.422 688.445H257.18C261.021 681.284 265.35 676.792 270.168 674.969C275.051 673.146 280.91 672.234 287.746 672.234C292.889 672.234 297.512 672.983 301.613 674.48C305.78 675.978 309.263 678.289 312.062 681.414C314.927 684.539 317.076 688.543 318.508 693.426C320.005 698.243 320.754 704.038 320.754 710.809V757.195C320.754 762.99 321.763 766.798 323.781 768.621C325.865 770.444 329.348 771.355 334.23 771.355H334.816ZM401.223 783.953C384.361 783.953 371.47 779.135 362.551 769.5C353.762 759.995 349.367 746.486 349.367 728.973C349.367 710.288 353.697 696.128 362.355 686.492C370.884 676.987 383.091 672.234 398.977 672.234C413.69 672.234 425.116 676.303 433.254 684.441C437.29 688.478 440.383 693.491 442.531 699.48C444.68 705.47 445.754 712.436 445.754 720.379V730.633H380.227C380.422 737.339 381.171 743.1 382.473 747.918C383.775 752.736 385.533 756.707 387.746 759.832C392.173 765.952 398.586 769.012 406.984 769.012C413.56 769.012 419.289 767.547 424.172 764.617C429.055 761.622 432.733 757.684 435.207 752.801C438.788 754.754 440.578 758.009 440.578 762.566C440.578 765.431 439.797 768.165 438.234 770.77C436.672 773.309 434.263 775.555 431.008 777.508C427.753 779.461 423.651 781.023 418.703 782.195C413.82 783.367 407.993 783.953 401.223 783.953ZM399.367 685.223C393.768 685.223 389.309 687.99 385.988 693.523C382.733 699.057 380.943 707.163 380.617 717.84H415.188C415.188 712.762 414.895 708.204 414.309 704.168C413.788 700.132 412.876 696.714 411.574 693.914C408.905 688.12 404.836 685.223 399.367 685.223ZM500.441 783.953C493.215 783.953 487.062 783.367 481.984 782.195C476.906 781.023 472.74 779.396 469.484 777.312C466.294 775.229 463.951 772.755 462.453 769.891C460.956 767.026 460.207 763.934 460.207 760.613C460.207 756.642 461.151 753.549 463.039 751.336C464.927 749.122 467.303 747.592 470.168 746.746C473.033 745.835 475.93 745.379 478.859 745.379C478.859 753.322 480.78 759.799 484.621 764.812C488.462 769.76 493.736 772.234 500.441 772.234C506.626 772.234 511.477 770.997 514.992 768.523C518.508 766.049 520.266 762.729 520.266 758.562C520.266 754.201 518.508 750.587 514.992 747.723C511.411 744.858 504.966 741.831 495.656 738.641C490.253 736.753 485.5 734.767 481.398 732.684C477.297 730.535 473.814 728.094 470.949 725.359C465.155 719.891 462.258 712.827 462.258 704.168C462.258 698.829 463.267 694.174 465.285 690.203C467.368 686.167 470.298 682.846 474.074 680.242C477.85 677.573 482.375 675.62 487.648 674.383C492.922 673.081 498.781 672.43 505.227 672.43C511.542 672.43 516.913 672.983 521.34 674.09C525.767 675.132 529.38 676.531 532.18 678.289C534.979 680.047 537.03 682.033 538.332 684.246C539.634 686.46 540.285 688.706 540.285 690.984C540.285 695.477 538.69 698.895 535.5 701.238C532.375 703.582 527.167 704.754 519.875 704.754C519.875 698.113 518.378 692.97 515.383 689.324C512.453 685.613 508.091 683.758 502.297 683.758C497.935 683.758 494.126 684.799 490.871 686.883C487.681 688.966 486.086 692.059 486.086 696.16C486.086 698.309 486.509 700.229 487.355 701.922C488.202 703.615 489.634 705.21 491.652 706.707C493.736 708.27 496.503 709.832 499.953 711.395C503.469 712.957 507.961 714.682 513.43 716.57C517.857 718.133 521.926 719.923 525.637 721.941C529.413 723.895 532.668 726.141 535.402 728.68C538.072 731.284 540.155 734.246 541.652 737.566C543.15 740.822 543.898 744.565 543.898 748.797C543.898 759.995 540.122 768.621 532.57 774.676C524.888 780.861 514.178 783.953 500.441 783.953ZM598.098 783.953C590.871 783.953 584.719 783.367 579.641 782.195C574.562 781.023 570.396 779.396 567.141 777.312C563.951 775.229 561.607 772.755 560.109 769.891C558.612 767.026 557.863 763.934 557.863 760.613C557.863 756.642 558.807 753.549 560.695 751.336C562.583 749.122 564.96 747.592 567.824 746.746C570.689 745.835 573.586 745.379 576.516 745.379C576.516 753.322 578.436 759.799 582.277 764.812C586.118 769.76 591.392 772.234 598.098 772.234C604.283 772.234 609.133 770.997 612.648 768.523C616.164 766.049 617.922 762.729 617.922 758.562C617.922 754.201 616.164 750.587 612.648 747.723C609.068 744.858 602.622 741.831 593.312 738.641C587.909 736.753 583.156 734.767 579.055 732.684C574.953 730.535 571.47 728.094 568.605 725.359C562.811 719.891 559.914 712.827 559.914 704.168C559.914 698.829 560.923 694.174 562.941 690.203C565.025 686.167 567.954 682.846 571.73 680.242C575.507 677.573 580.031 675.62 585.305 674.383C590.578 673.081 596.438 672.43 602.883 672.43C609.198 672.43 614.569 672.983 618.996 674.09C623.423 675.132 627.036 676.531 629.836 678.289C632.635 680.047 634.686 682.033 635.988 684.246C637.29 686.46 637.941 688.706 637.941 690.984C637.941 695.477 636.346 698.895 633.156 701.238C630.031 703.582 624.823 704.754 617.531 704.754C617.531 698.113 616.034 692.97 613.039 689.324C610.109 685.613 605.747 683.758 599.953 683.758C595.591 683.758 591.783 684.799 588.527 686.883C585.337 688.966 583.742 692.059 583.742 696.16C583.742 698.309 584.165 700.229 585.012 701.922C585.858 703.615 587.29 705.21 589.309 706.707C591.392 708.27 594.159 709.832 597.609 711.395C601.125 712.957 605.617 714.682 611.086 716.57C615.513 718.133 619.582 719.923 623.293 721.941C627.069 723.895 630.324 726.141 633.059 728.68C635.728 731.284 637.811 734.246 639.309 737.566C640.806 740.822 641.555 744.565 641.555 748.797C641.555 759.995 637.779 768.621 630.227 774.676C622.544 780.861 611.835 783.953 598.098 783.953Z" fill="#0A22FF"/>
</svg>
