<svg width="570" height="540" viewBox="0 0 570 540" fill="none" xmlns="http://www.w3.org/2000/svg">
<path d="M235.453 368.361V444.393L222.269 457.577H143.293V452.457H153.533V360.297H143.293V355.177H222.269L235.453 368.361ZM182.973 360.297V452.457H206.013V360.297H182.973ZM248.258 426.857H254.018V440.681L265.794 452.457H307.01L249.538 384.745V367.081L261.442 355.177H311.746L320.706 364.137V353.897H326.466V385.897H320.706V372.073L308.93 360.297H271.554L329.026 428.009V445.673L317.122 457.577H262.978L254.018 448.617V458.857H248.258V426.857ZM341.883 426.857H347.643V440.681L359.419 452.457H400.635L343.163 384.745V367.081L355.067 355.177H405.371L414.331 364.137V353.897H420.091V385.897H414.331V372.073L402.555 360.297H365.179L422.651 428.009V445.673L410.747 457.577H356.603L347.643 448.617V458.857H341.883V426.857Z" fill="white"/>
<path d="M391.019 231.951C389.953 225.761 370.916 209.52 370.632 193.101C370.252 158.653 365.709 137.512 357.169 120.429C323.555 58.4814 224.568 70.0144 201.277 152.781C192.22 183.297 202.796 257.259 236.773 281.766C242.647 286.072 234.519 313.52 225.595 337.276H309.911C315.537 320.995 325.106 305.738 332.168 308.277C359.936 312.356 366.792 309.919 372.555 301.877C375.856 296.455 375.013 289.039 372.555 280.852C371.646 277.335 380.406 277.981 379.48 273.995C378.4 269.351 366.665 266.378 361.769 260.502C367.035 260.162 382.332 261.012 381.019 256.17C379.679 252.099 374.567 243.03 379.096 242.459C384.506 241.6 391.892 236.569 391.019 231.951Z" fill="#E8C395"/>
<path d="M317.943 145.245H255.997V218.852H317.943V145.245Z" fill="#0CBDC6"/>
<path d="M309.913 340.191H225.597C224.766 340.191 223.995 339.69 223.541 338.863C223.088 338.036 223.022 336.994 223.36 336.094C238.033 297.026 237.09 285.423 235.487 284.247C199.412 258.223 190.091 181.725 198.969 151.814C210.02 112.539 239.907 84.6776 276.955 79.1455C311.604 73.9599 343.133 89.1848 359.233 118.851C368.588 137.567 372.717 159.734 373.085 193.063C373.246 202.576 380.963 212.711 386.599 220.112C390.25 224.908 392.894 228.378 393.416 231.34C393.663 232.676 393.661 234.758 392.266 237.134C389.74 241.446 383.994 244.518 379.73 245.295C379.934 246.85 381.267 250.035 381.95 251.672C382.494 252.97 382.992 254.17 383.303 255.113C383.739 256.709 383.558 258.147 382.84 259.338C381.102 262.212 376.383 262.948 369.772 263.199C370.651 263.717 371.546 264.212 372.406 264.692C377.003 267.255 380.973 269.465 381.845 273.226C382.94 277.94 378.679 279.623 376.63 280.433C376.224 280.593 375.65 280.82 375.204 281.032C377.071 287.531 378.782 296.624 374.545 303.583C367.471 313.465 358.326 315.058 331.869 311.165C331.729 311.145 331.594 311.11 331.46 311.063C326.743 309.363 317.889 321.865 312.18 338.383C311.802 339.478 310.906 340.191 309.913 340.191ZM229.354 334.368H308.289C314.214 318.115 324.091 302.666 332.658 305.415C360.509 309.497 365.849 306.751 370.691 299.99C372.943 296.281 372.84 290.452 370.25 281.833C369.073 277.282 373.131 275.678 375.082 274.906C375.56 274.72 376.251 274.446 376.75 274.187C375.633 272.921 372.384 271.113 370.321 269.962C366.716 267.953 362.629 265.677 360.024 262.549C359.348 261.737 359.134 260.526 359.48 259.457C359.828 258.386 360.668 257.658 361.631 257.597C362.636 257.533 363.994 257.506 365.532 257.48C368.497 257.431 375.92 257.306 378.36 256.196C378.137 255.637 377.856 254.965 377.562 254.26C375.736 249.898 373.852 245.391 375.359 242.127C375.746 241.286 376.716 239.836 378.838 239.568C382.35 239.006 386.78 236.307 388.248 233.803C388.542 233.302 388.681 232.859 388.63 232.586C388.625 232.568 388.623 232.551 388.62 232.533C388.375 231.124 385.376 227.182 382.965 224.014C376.814 215.934 368.387 204.864 368.186 193.159C367.831 160.901 363.905 139.6 355.067 121.914C340.043 94.2394 310.337 80.0248 277.565 84.9193C242.404 90.1689 214.063 116.528 203.602 153.704C195.381 181.405 204.516 255.09 238.048 279.283C240.324 280.954 247.09 285.921 229.354 334.368Z" fill="black"/>
<path d="M317.943 221.772H256.002C254.649 221.772 253.551 220.471 253.551 218.861V145.257C253.551 143.65 254.649 142.346 256.002 142.346H317.943C319.298 142.346 320.394 143.65 320.394 145.257V218.861C320.394 220.468 319.298 221.772 317.943 221.772ZM258.452 215.949H315.493V148.169H258.452V215.949Z" fill="black"/>
<path d="M286.975 148.169C285.622 148.169 284.524 146.864 284.524 145.257V105.202C284.524 103.594 285.622 102.29 286.975 102.29C288.328 102.29 289.425 103.594 289.425 105.202V145.257C289.423 146.864 288.328 148.169 286.975 148.169Z" fill="black"/>
<path d="M308.693 148.169C307.338 148.169 306.242 146.864 306.242 145.257V115.518C306.242 113.91 307.338 112.606 308.693 112.606C310.048 112.606 311.143 113.91 311.143 115.518V145.257C311.141 146.864 310.045 148.169 308.693 148.169Z" fill="black"/>
<path d="M265.254 148.169C263.902 148.169 262.804 146.864 262.804 145.257V122.395C262.804 120.788 263.902 119.483 265.254 119.483C266.607 119.483 267.705 120.788 267.705 122.395V145.257C267.705 146.864 266.607 148.169 265.254 148.169Z" fill="black"/>
<path d="M286.975 279.021C285.622 279.021 284.524 277.719 284.524 276.109V218.86C284.524 217.25 285.622 215.949 286.975 215.949C288.328 215.949 289.425 217.25 289.425 218.86V276.109C289.423 277.719 288.328 279.021 286.975 279.021Z" fill="black"/>
<path d="M308.693 265.266C307.338 265.266 306.242 263.965 306.242 262.354V218.86C306.242 217.25 307.338 215.949 308.693 215.949C310.048 215.949 311.143 217.25 311.143 218.86V262.354C311.141 263.965 310.045 265.266 308.693 265.266Z" fill="black"/>
<path d="M265.254 251.511C263.902 251.511 262.804 250.21 262.804 248.6V218.86C262.804 217.25 263.902 215.949 265.254 215.949C266.607 215.949 267.705 217.25 267.705 218.86V248.6C267.705 250.21 266.607 251.511 265.254 251.511Z" fill="black"/>
<path d="M256.002 184.969H222.292C220.939 184.969 219.841 183.665 219.841 182.057C219.841 180.45 220.939 179.146 222.292 179.146H256.002C257.354 179.146 258.452 180.45 258.452 182.057C258.452 183.668 257.354 184.969 256.002 184.969Z" fill="black"/>
<path d="M256.002 159.163H233.867C232.515 159.163 231.417 157.859 231.417 156.251C231.417 154.644 232.515 153.34 233.867 153.34H256.002C257.354 153.34 258.452 154.644 258.452 156.251C258.452 157.859 257.354 159.163 256.002 159.163Z" fill="black"/>
<path d="M256.002 210.775H236.761C235.409 210.775 234.311 209.471 234.311 207.863C234.311 206.256 235.409 204.952 236.761 204.952H256.002C257.354 204.952 258.452 206.256 258.452 207.863C258.452 209.473 257.354 210.775 256.002 210.775Z" fill="black"/>
<path d="M354.55 184.969H317.943C316.588 184.969 315.493 183.665 315.493 182.057C315.493 180.45 316.588 179.146 317.943 179.146H354.547C355.902 179.146 356.998 180.45 356.998 182.057C357 183.668 355.902 184.969 354.55 184.969Z" fill="black"/>
<path d="M337.186 159.163H317.943C316.588 159.163 315.493 157.859 315.493 156.251C315.493 154.644 316.588 153.34 317.943 153.34H337.184C338.539 153.34 339.634 154.644 339.634 156.251C339.634 157.859 338.539 159.163 337.186 159.163Z" fill="black"/>
<path d="M340.08 210.775H317.943C316.588 210.775 315.493 209.471 315.493 207.863C315.493 206.256 316.588 204.952 317.943 204.952H340.08C341.435 204.952 342.531 206.256 342.531 207.863C342.531 209.473 341.435 210.775 340.08 210.775Z" fill="black"/>
<path d="M272.272 183.804C270.92 183.804 269.822 182.5 269.822 180.893V164.59C269.822 162.983 270.92 161.679 272.272 161.679H285.992C287.345 161.679 288.443 162.983 288.443 164.59C288.443 166.198 287.345 167.502 285.992 167.502H274.723V180.893C274.723 182.5 273.628 183.804 272.272 183.804Z" fill="black"/>
<path d="M389.028 215.864H375.308C373.955 215.864 372.857 214.56 372.857 212.953C372.857 211.345 373.955 210.041 375.308 210.041H386.577V196.65C386.577 195.043 387.672 193.739 389.028 193.739C390.383 193.739 391.478 195.043 391.478 196.65V212.953C391.478 214.563 390.38 215.864 389.028 215.864Z" fill="black"/>
<path d="M332.17 311.188C332.111 311.188 332.05 311.185 331.991 311.179C322.947 310.405 314.378 305.545 305.792 296.324C304.789 295.244 304.711 293.404 305.618 292.21C306.529 291.022 308.078 290.926 309.08 292.003C316.821 300.322 324.432 304.695 332.347 305.374C333.697 305.487 334.711 306.882 334.613 308.486C334.518 310.021 333.444 311.188 332.17 311.188Z" fill="black"/>
<path d="M67.6829 435.038L39.9966 438.979L38.347 434.592L57.2746 415.757C58.0936 414.927 59.0649 414.002 60.1886 412.98C61.2935 411.968 62.3604 411.031 63.3892 410.17C64.4107 409.29 65.2001 408.647 65.7574 408.242C65.1236 408.384 64.2721 408.597 63.203 408.879C62.1265 409.141 61.1795 409.365 60.362 409.549C59.3419 409.785 58.3124 410.024 57.2735 410.269C56.2158 410.522 55.1826 410.753 54.174 410.96L40.5291 413.767C40.0603 413.877 39.4714 414.021 38.7625 414.199C38.0347 414.387 37.5206 414.553 37.2199 414.697C36.2241 415.173 35.6368 415.823 35.4581 416.645C35.272 417.448 35.4282 418.512 35.9267 419.838L36.4436 421.213L33.3997 422.671L27.5274 407.051L30.5712 405.593L31.0001 406.733C31.4913 408.04 32.1699 408.842 33.036 409.141C33.9021 409.44 35.2948 409.428 37.214 409.107L74.3624 402.291L76.9247 409.106L53.6231 432.142L83.9518 427.798L86.745 435.228L55.7801 463.004C54.7398 463.893 54.1319 464.783 53.9563 465.672C53.7546 466.551 53.8701 467.566 54.3026 468.717L54.5995 469.506L51.5557 470.964L44.0338 450.956L47.0776 449.499L47.5945 450.873C48.4962 453.272 49.8772 454.026 51.7373 453.135C52.0567 452.982 52.5044 452.698 53.0805 452.284C53.6304 451.86 54.1391 451.444 54.6066 451.036L66.4309 440.643C67.1999 439.975 68.1233 439.188 69.2012 438.28C70.2791 437.373 71.3586 436.499 72.4396 435.659C73.5207 434.819 74.4375 434.161 75.19 433.686C73.8473 434.007 72.5818 434.268 71.3935 434.469C70.1791 434.659 68.9422 434.849 67.6829 435.038Z" fill="#0CFD44"/>
<path d="M61.1301 345.11L64.4742 344.463L66.6116 358.52L45.9336 362.526C43.3974 363.017 41.4069 363.774 39.9621 364.796C38.5142 365.797 37.9389 367.276 38.2365 369.233C38.4494 370.633 39.0772 371.646 40.1197 372.271C41.1622 372.896 42.4551 373.229 43.9983 373.269C45.521 373.313 47.1209 373.173 48.7981 372.848L60.7938 370.524C62.471 370.199 63.5159 369.594 63.9287 368.708C64.321 367.827 64.4044 366.644 64.1789 365.161L64.1507 364.976L67.4948 364.328L70.4497 383.761L67.1056 384.409L67.0868 384.285C66.8488 382.72 66.3981 381.556 65.7348 380.794C65.0511 380.036 63.8092 379.831 62.0094 380.18L29.0902 386.557C27.5562 386.855 26.6056 387.526 26.2383 388.573C25.8711 389.619 25.772 390.699 25.9411 391.811L26.0538 392.553L22.7405 393.194L20.4808 378.334L30.8199 376.331C31.638 376.173 32.5222 376.033 33.4724 375.913C34.4195 375.771 35.2966 375.655 36.1036 375.562C36.5803 375.512 37.057 375.462 37.5337 375.412C37.9899 375.366 38.4462 375.32 38.9024 375.274L38.8178 374.718C36.3832 373.939 34.7637 372.842 33.9592 371.429C33.1517 369.995 32.5835 368.197 32.2546 366.034C32.0072 364.407 32.0201 362.899 32.2932 361.511C32.5632 360.101 33.1217 358.859 33.9688 357.783C34.8127 356.687 35.9672 355.763 37.4323 355.013C38.8738 354.246 40.6581 353.656 42.7852 353.244L57.358 350.421C59.1783 350.068 60.3263 349.517 60.8019 348.768C61.2744 347.998 61.3932 346.841 61.1583 345.296L61.1301 345.11Z" fill="#0CFD44"/>
<path d="M65.1117 320.44C65.108 325.836 63.5635 329.959 60.4782 332.812C57.4346 335.622 53.1107 337.025 47.5065 337.021C41.5274 337.017 36.9971 335.629 33.9156 332.856C30.8759 330.125 29.3577 326.217 29.3612 321.134C29.3644 316.426 30.669 312.77 33.275 310.168C34.5676 308.877 36.1724 307.889 38.0895 307.202C40.0067 306.516 42.2361 306.174 44.7778 306.176L48.059 306.178L48.0446 327.147C50.1905 327.086 52.0344 326.847 53.5763 326.432C55.1183 326.016 56.3895 325.455 57.39 324.747C59.3493 323.332 60.3299 321.28 60.3317 318.593C60.3332 316.489 59.8657 314.655 58.9292 313.092C57.972 311.529 56.7124 310.351 55.1504 309.558C55.7762 308.412 56.8183 307.84 58.2766 307.841C59.1933 307.842 60.0681 308.092 60.9011 308.593C61.7132 309.094 62.4315 309.865 63.0558 310.907C63.68 311.949 64.1791 313.262 64.553 314.846C64.927 316.408 65.1132 318.273 65.1117 320.44ZM33.5175 321.012C33.5163 322.803 34.4007 324.231 36.1709 325.295C37.941 326.338 40.5343 326.912 43.9509 327.019L43.9585 315.956C42.3335 315.955 40.8751 316.048 39.5833 316.235C38.2916 316.4 37.1976 316.691 36.3015 317.107C34.4467 317.96 33.5187 319.262 33.5175 321.012Z" fill="#0CFD44"/>
<path d="M64.0354 279.256L64.3169 277.213L67.6718 277.802L64.7543 298.977L61.3994 298.388L61.425 298.202C61.6439 296.613 61.523 295.355 61.0622 294.429C60.5837 293.478 59.4211 292.84 57.5743 292.516L39.2914 289.307C37.5267 288.997 36.3236 289.187 35.682 289.878C35.0228 290.544 34.5894 291.631 34.3818 293.138L34.3562 293.323L31.0012 292.734L32.7671 279.918L37.8667 279.513L37.9093 279.204C36.0384 277.987 34.7513 276.652 34.0481 275.197C33.3244 273.738 33.1346 271.76 33.4786 269.263C34.1469 264.413 36.1841 262.287 39.5904 262.885C41.5192 263.223 42.9205 264.188 43.7941 265.779C44.6678 267.369 44.9283 269.444 44.5757 272.003C42.9546 271.719 41.6554 271.692 40.678 271.922C39.6801 272.148 39.093 272.901 38.9167 274.181C38.7688 275.254 39.0481 276.201 39.7545 277.023C40.4404 277.841 41.2927 278.519 42.3114 279.057C43.0159 279.434 43.7291 279.75 44.4507 280.003C45.19 280.281 45.8954 280.5 46.5669 280.66C47.2383 280.82 47.8203 280.943 48.3128 281.03L59.2087 282.943C60.9528 283.249 62.1443 283.067 62.783 282.397C63.4217 281.727 63.8392 280.68 64.0354 279.256Z" fill="#0CFD44"/>
<path d="M75.0184 245.044C73.5553 250.238 70.9857 253.687 67.3097 255.393C63.6842 257.072 59.2341 256.966 53.9594 255.072C48.3318 253.052 44.4426 250.188 42.2919 246.479C40.1691 242.825 39.797 238.551 41.1754 233.658C42.4522 229.126 44.6691 226.047 47.8264 224.42C49.3924 223.613 51.1706 223.203 53.161 223.189C55.1514 223.174 57.3427 223.597 59.7349 224.455L62.8233 225.564L57.1372 245.747C59.1738 246.412 60.9741 246.804 62.5381 246.924C64.1022 247.043 65.4508 246.931 66.5841 246.587C68.8114 245.885 70.2895 244.241 71.0183 241.654C71.5888 239.629 71.6448 237.706 71.1861 235.885C70.7078 234.057 69.8407 232.499 68.5847 231.209C69.4837 230.317 70.6195 230.117 71.9921 230.61C72.8549 230.92 73.6106 231.456 74.2594 232.219C74.8885 232.975 75.356 233.959 75.6618 235.173C75.9676 236.387 76.0823 237.819 76.0059 239.47C75.9351 241.101 75.606 242.959 75.0184 245.044ZM45.1212 234.942C44.6353 236.667 45.0817 238.339 46.4603 239.96C47.8446 241.561 50.1305 242.989 53.318 244.244L56.3178 233.595C54.7884 233.047 53.3904 232.644 52.1238 232.388C50.8629 232.112 49.7543 232.023 48.7982 232.122C46.8214 232.318 45.5957 233.258 45.1212 234.942Z" fill="#0CFD44"/>
<path d="M89.405 152.368C92.2294 154.435 94.5797 156.746 96.4559 159.299C98.3258 161.822 99.6239 164.53 100.35 167.423C101.087 170.297 101.221 173.307 100.751 176.453C100.264 179.586 99.092 182.77 97.2345 186.004L86.7118 204.321L83.9631 202.31L85.3018 199.979C85.8518 199.022 86.0347 198.142 85.8506 197.34C85.6497 196.526 84.8936 195.639 83.5823 194.679L58.6926 176.463C57.4654 175.565 56.4931 175.199 55.7758 175.367C55.0689 175.517 54.4456 176.062 53.906 177.001L52.5673 179.331L49.8438 177.338L60.3665 159.02C63.957 152.77 68.2104 149.045 73.1267 147.844C75.5712 147.247 78.1657 147.324 80.9101 148.075C83.6481 148.796 86.4798 150.227 89.405 152.368ZM84.0191 161.744C79.0933 158.139 74.868 156.432 71.3432 156.623C67.8287 156.797 64.9871 158.771 62.8182 162.547L60.997 165.717L91.5101 188.049L93.3002 184.933C94.3899 183.036 94.9883 181.101 95.0956 179.127C95.1861 177.14 94.8222 175.155 94.0041 173.17C92.3573 169.219 89.029 165.41 84.0191 161.744Z" fill="#0CFD44"/>
<path d="M101.593 123.909C100.515 125.18 100.235 126.536 100.75 127.975C101.265 129.383 102.188 130.805 103.519 132.241C101.661 134.435 100.041 135.851 98.6596 136.49C97.2915 137.113 96.0765 136.852 95.0145 135.706C94.2216 134.85 93.7641 133.854 93.6421 132.718C93.5336 131.567 93.6928 130.339 94.1198 129.035C94.5334 127.747 95.174 126.414 96.0416 125.038C96.9086 123.631 97.9278 122.235 99.0994 120.852C100.554 119.136 101.954 117.787 103.3 116.805C104.646 115.793 105.973 115.17 107.28 114.939C109.896 114.506 112.528 115.719 115.176 118.576L126.263 130.542C127.41 131.78 128.385 132.437 129.188 132.512C130.005 132.572 130.885 132.046 131.827 130.933L131.989 130.742L134.304 133.241L126.608 142.326L122.745 140.119L122.381 140.548C122.541 142.151 122.6 143.553 122.558 144.755C122.529 145.941 122.291 147.054 121.844 148.093C121.412 149.148 120.677 150.287 119.64 151.511C118.725 152.592 117.735 153.441 116.67 154.057C115.606 154.673 114.481 155.01 113.293 155.068C112.134 155.125 110.94 154.887 109.712 154.352C108.483 153.787 107.267 152.855 106.064 151.556C103.699 149.004 102.718 146.21 103.12 143.176C103.536 140.125 105.243 136.718 108.241 132.955L111.507 128.812L109.107 126.221C107.662 124.663 106.339 123.553 105.136 122.894C103.918 122.219 102.737 122.557 101.593 123.909ZM112.657 144.157C115.149 146.846 117.176 147.269 118.738 145.425C119.977 143.963 120.409 142.268 120.034 140.343C119.673 138.401 118.686 136.559 117.072 134.817L113.801 131.287L112.07 133.618C110.552 135.602 109.874 137.426 110.036 139.091C110.183 140.741 111.057 142.43 112.657 144.157Z" fill="#0CFD44"/>
<path d="M149.165 112.752C149.788 112.199 150.351 111.632 150.853 111.049C151.359 110.435 151.813 109.838 152.217 109.259L154.59 112.671C154.193 113.549 153.465 114.677 152.408 116.056C151.367 117.422 150.137 118.733 148.718 119.99C147.642 120.944 146.566 121.662 145.491 122.145C144.427 122.645 143.36 122.831 142.288 122.703C141.228 122.592 140.171 122.16 139.118 121.407C138.053 120.636 136.985 119.482 135.914 117.942L124.227 101.139L120.625 104.33L118.751 101.637C119.78 100.725 120.546 99.6873 121.047 98.5241C121.549 97.3609 121.839 96.2744 121.918 95.2646C122.111 93.2962 121.636 90.9108 120.494 88.1085L124.47 84.5851L129.002 91.1013L135.13 85.6711L137.628 89.2627L131.5 94.6929L142.813 110.958C143.92 112.548 144.97 113.497 145.965 113.804C146.976 114.098 148.042 113.747 149.165 112.752Z" fill="#0CFD44"/>
<path d="M158.153 72.5262C156.756 73.4358 156.108 74.6491 156.209 76.166C156.318 77.653 156.818 79.2684 157.709 81.012C155.3 82.5811 153.337 83.4761 151.821 83.697C150.323 83.9065 149.218 83.3157 148.507 81.9244C147.976 80.8856 147.809 79.8076 148.005 78.6904C148.22 77.5618 148.714 76.4359 149.49 75.3127C150.248 74.2008 151.238 73.1108 152.46 72.0426C153.691 70.9445 155.065 69.9008 156.584 68.9116C158.469 67.6836 160.2 66.791 161.777 66.2339C163.362 65.6468 164.82 65.4265 166.152 65.573C168.806 65.8961 171.021 67.792 172.794 71.2608L180.219 85.7853C180.987 87.2879 181.75 88.1881 182.508 88.4861C183.282 88.7727 184.281 88.518 185.503 87.7221L185.712 87.5857L187.263 90.6186L177.286 97.1167L174.154 93.9268L173.683 94.2338C173.394 95.807 173.062 97.1606 172.687 98.2945C172.331 99.4172 171.792 100.411 171.07 101.276C170.359 102.16 169.331 103.04 167.987 103.915C166.8 104.689 165.605 105.22 164.403 105.508C163.201 105.796 162.016 105.801 160.85 105.523C159.711 105.251 158.62 104.688 157.578 103.833C156.544 102.949 155.624 101.718 154.818 100.142C153.235 97.0439 153.058 94.1049 154.29 91.3247C155.539 88.5331 158.138 85.7648 162.086 83.0198L166.4 79.9875L164.793 76.8433C163.825 74.9512 162.85 73.5217 161.867 72.5547C160.875 71.5692 159.637 71.5597 158.153 72.5262ZM163.259 94.9407C164.928 98.2054 166.775 99.1783 168.8 97.8594C170.406 96.8133 171.295 95.3197 171.466 93.3785C171.654 91.4259 171.208 89.3923 170.127 87.2776L167.936 82.9926L165.613 84.7286C163.592 86.193 162.429 87.7417 162.124 89.3747C161.809 90.9892 162.187 92.8445 163.259 94.9407Z" fill="#0CFD44"/>
<path d="M232.767 72.555C228.966 73.6605 225.52 74.078 222.429 73.8075C219.358 73.5311 216.653 72.661 214.313 71.1972C211.974 69.7334 210.022 67.7237 208.457 65.1682C206.892 62.6126 205.718 59.6186 204.935 56.1861C204.165 52.8145 203.95 49.5847 204.29 46.4967C204.631 43.4087 205.532 40.5801 206.993 38.0107C208.454 35.4414 210.488 33.1821 213.093 31.233C215.699 29.2838 218.882 27.7623 222.643 26.6684C225.204 25.9236 227.488 25.4649 229.497 25.2922C231.5 25.0992 233.217 25.1415 234.645 25.4191C237.503 25.9742 239.175 27.318 239.662 29.4507C240.028 31.0552 239.582 32.5602 238.324 33.9657C237.082 35.3451 235.281 36.3781 232.92 37.0647C232.331 34.4852 231.228 32.5968 229.611 31.3994C228.014 30.1962 225.925 29.97 223.344 30.7206C221.104 31.3722 219.298 32.3414 217.928 33.628C216.558 34.9146 215.556 36.5056 214.922 38.4011C214.308 40.2907 214.04 42.4805 214.118 44.9704C214.191 47.4399 214.571 50.1777 215.257 53.1837C215.943 56.1897 216.793 58.7907 217.806 60.9868C218.815 63.1626 220.02 64.8913 221.422 66.173C222.844 67.4489 224.48 68.2617 226.331 68.6115C228.177 68.941 230.31 68.7537 232.73 68.0496C233.49 67.8285 234.244 67.577 234.99 67.2949C235.736 67.0129 236.451 66.6859 237.134 66.3139L235.04 57.1436C234.66 55.4782 234.026 54.4281 233.137 53.9934C232.249 53.5588 231.084 53.5509 229.644 53.9698L228.834 54.2055L228.082 50.9152L247.407 45.2944L248.158 48.5848L247.348 48.8204C246.007 49.2103 245.151 49.8493 244.777 50.7376C244.4 51.6056 244.403 52.8825 244.788 54.5683L247.125 64.8049C244.979 66.6202 242.751 68.1672 240.441 69.4457C238.125 70.704 235.567 71.7404 232.767 72.555Z" fill="#0CFD44"/>
<path d="M293.686 60.3301L293.858 63.732L281.134 64.5499L279.502 60.1147L279.191 60.1347C278.071 62.3359 276.686 63.8235 275.036 64.5975C273.405 65.3495 271.509 65.7949 269.346 65.9339C266.02 66.1477 263.411 65.2822 261.519 63.3372C259.648 61.391 258.603 58.2643 258.386 53.9573L257.663 39.6317C257.573 37.8424 257.18 36.6673 256.484 36.1067C255.808 35.5239 254.67 35.284 253.069 35.3869L252.944 35.3949L252.773 31.993L266.962 31.0809L267.995 51.5548C268.125 54.1349 268.556 56.2573 269.286 57.922C270.038 59.5854 271.38 60.355 273.314 60.2307C275.309 60.1024 276.752 59.1329 277.641 57.3224C278.076 56.4385 278.368 55.3969 278.516 54.1976C278.664 52.9982 278.7 51.6495 278.624 50.1514L278.006 37.8858C277.916 36.1172 277.444 35.0203 276.588 34.5952C275.732 34.1701 274.598 34.003 273.184 34.0939L272.997 34.1059L272.825 30.704L287.326 29.7718L288.681 56.6127C288.768 58.3397 289.187 59.4191 289.939 59.8508C290.691 60.2826 291.763 60.4537 293.156 60.3642L293.686 60.3301Z" fill="#0CFD44"/>
<path d="M303.43 20.7172C303.552 19.1386 304.15 18.0359 305.222 17.4092C306.316 16.7638 307.641 16.5178 309.196 16.6713C310.71 16.8207 311.966 17.3215 312.965 18.1736C313.987 19.007 314.437 20.213 314.315 21.7916C314.196 23.3287 313.567 24.4282 312.43 25.0904C311.292 25.7525 309.977 26.0099 308.484 25.8625C306.929 25.709 305.663 25.1968 304.686 24.326C303.73 23.4572 303.311 22.2543 303.43 20.7172ZM295.593 64.8383L295.856 61.4423L296.603 61.5159C297.764 61.6305 298.832 61.4535 299.809 60.9848C300.785 60.516 301.337 59.4612 301.464 57.8203L302.966 38.4409C303.086 36.883 302.69 35.7974 301.776 35.184C300.863 34.5706 299.847 34.2086 298.727 34.0981L297.981 34.0244L298.244 30.6284L313.202 32.1049L311.136 58.775C311.009 60.4159 311.39 61.5628 312.28 62.2157C313.19 62.8707 314.215 63.2544 315.355 63.367L316.102 63.4407L315.839 66.8367L295.593 64.8383Z" fill="#0CFD44"/>
<path d="M347.26 24.3996L362.157 28.327L353.9 68.2317C353.528 70.027 353.757 71.335 354.586 72.1559C355.439 72.9616 356.62 73.5637 358.131 73.962L358.373 74.0257L357.683 77.3613L345.687 74.1987L344.977 68.8483L344.403 68.697C343.089 70.2223 341.557 71.2599 339.808 71.8098C338.082 72.3446 336.061 72.3066 333.745 71.6959C329.635 70.6125 326.812 68.3945 325.275 65.0419C323.666 61.6272 323.476 56.9515 324.704 51.0148C325.941 45.0373 327.949 40.8766 330.729 38.5328C333.431 36.2547 336.806 35.6494 340.855 36.7168C343.011 37.2851 344.771 38.2225 346.137 39.5291C347.502 40.8357 348.468 42.3811 349.033 44.1653L349.456 44.2768C349.538 43.6745 349.614 43.1029 349.684 42.5618C349.757 42.0004 349.827 41.4593 349.892 40.9387C350.02 40.2193 350.138 39.39 350.247 38.4507C350.377 37.5167 350.48 36.8661 350.556 36.4989L351.271 33.0409C351.613 31.3884 351.369 30.2054 350.54 29.4919C349.71 28.7783 348.55 28.2251 347.059 27.8321L346.576 27.7046L347.26 24.3996ZM337.373 67.7149C339.75 68.3415 341.649 67.7343 343.071 65.8933C343.774 64.9599 344.391 63.7241 344.922 62.1859C345.457 60.6273 345.948 58.7667 346.396 56.6042C346.822 54.5437 347.099 52.6912 347.227 51.0469C347.359 49.3821 347.297 47.9351 347.042 46.706C346.49 44.2371 345.036 42.692 342.679 42.0706C340.644 41.5342 338.944 42.2584 337.577 44.2431C336.243 46.172 335.139 49.2479 334.266 53.4709C333.392 57.694 333.176 60.9934 333.62 63.3692C334.067 65.7246 335.318 67.1732 337.373 67.7149Z" fill="#0CFD44"/>
<path d="M375.106 87.5936C370.232 85.279 367.044 82.065 365.543 77.9515C364.064 73.895 364.304 69.2411 366.261 63.9898C368.349 58.3871 371.183 54.7354 374.763 53.0348C378.291 51.3553 382.35 51.6058 386.942 53.7863C391.195 55.8059 394.044 58.5944 395.486 62.1516C396.202 63.916 396.536 65.8437 396.488 67.9345C396.439 70.0254 395.971 72.2617 395.084 74.6433L393.938 77.718L374.996 68.7234C374.303 70.761 373.875 72.5914 373.713 74.2147C373.551 75.838 373.616 77.2701 373.906 78.511C374.502 80.9537 376.014 82.7514 378.442 83.9042C380.342 84.8068 382.162 85.154 383.901 84.9458C385.647 84.718 387.151 84.0419 388.411 82.9173C389.228 83.9945 389.382 85.2163 388.873 86.5828C388.553 87.4418 388.021 88.1544 387.278 88.7208C386.543 89.2677 385.596 89.6105 384.436 89.7494C383.277 89.8882 381.917 89.7937 380.356 89.4659C378.813 89.1471 377.063 88.523 375.106 87.5936ZM385.604 57.7345C383.985 56.9659 382.387 57.1835 380.809 58.387C379.249 59.5995 377.826 61.7842 376.539 64.9411L386.532 69.6863C387.099 68.1636 387.524 66.7569 387.805 65.4662C388.106 64.1843 388.225 63.0343 388.161 62.0162C388.037 59.9124 387.185 58.4851 385.604 57.7345Z" fill="#0CFD44"/>
<path d="M402.306 104.59C400.401 103.278 398.869 101.996 397.71 100.744C396.55 99.4925 395.7 98.2779 395.159 97.1005C394.635 95.9349 394.394 94.813 394.436 93.7348C394.477 92.6567 394.751 91.6503 395.256 90.7157C395.861 89.5978 396.58 88.8987 397.415 88.6184C398.249 88.3382 399.108 88.3389 399.992 88.6208C400.885 88.8843 401.718 89.282 402.49 89.8139C401.281 92.0496 400.801 94.2217 401.05 96.3301C401.309 98.4202 402.322 100.074 404.09 101.291C405.719 102.414 407.186 102.947 408.489 102.889C409.792 102.83 410.76 102.215 411.394 101.042C412.058 99.8144 412.145 98.4782 411.655 97.0336C411.147 95.5772 409.91 93.5549 407.942 90.9667C406.805 89.4542 405.855 88.0324 405.092 86.7014C404.338 85.352 403.792 84.0324 403.453 82.7427C402.759 80.1514 403.07 77.6371 404.388 75.1998C405.201 73.6971 406.175 72.57 407.312 71.8186C408.475 71.0606 409.753 70.6579 411.144 70.6105C412.545 70.5447 414.035 70.8164 415.613 71.4256C417.201 72.0165 418.844 72.897 420.542 74.0672C422.206 75.2137 423.537 76.3446 424.536 77.4599C425.544 78.5568 426.283 79.6068 426.753 80.6099C427.223 81.6129 427.461 82.5442 427.467 83.4036C427.473 84.2631 427.303 85.0135 426.956 85.6549C426.272 86.9194 425.332 87.5919 424.135 87.6724C422.954 87.7648 421.403 87.1491 419.482 85.8252C420.493 83.956 420.881 82.2365 420.647 80.6665C420.44 79.0901 419.573 77.7759 418.046 76.7239C416.896 75.932 415.734 75.5337 414.559 75.5292C413.402 75.5364 412.511 76.1173 411.886 77.2718C411.559 77.8765 411.378 78.494 411.344 79.1241C411.309 79.7542 411.444 80.4632 411.748 81.2511C412.059 82.0692 412.55 83.0113 413.222 84.0776C413.91 85.1557 414.831 86.4569 415.985 87.9812C416.914 89.2247 417.713 90.4674 418.384 91.7092C419.082 92.9445 419.598 94.1678 419.932 95.3789C420.239 96.5965 420.337 97.8086 420.226 99.015C420.125 100.203 419.753 101.393 419.109 102.584C417.404 105.736 415.096 107.479 412.184 107.812C409.218 108.158 405.926 107.084 402.306 104.59Z" fill="#0CFD44"/>
<path d="M476.806 145.682C474.433 148.254 471.946 150.246 469.347 151.659C466.775 153.073 464.162 153.815 461.508 153.886C458.867 153.972 456.233 153.365 453.606 152.064C450.993 150.747 448.479 148.669 446.063 145.828L432.379 129.734L434.689 127.231L436.43 129.279C437.145 130.12 437.869 130.54 438.602 130.539C439.348 130.523 440.273 129.918 441.375 128.724L462.295 106.06C463.327 104.943 463.844 103.97 463.847 103.144C463.864 102.333 463.521 101.515 462.819 100.69L461.078 98.6426L463.367 96.1626L477.052 112.256C481.721 117.747 484.067 123.332 484.09 129.01C484.102 131.833 483.498 134.651 482.28 137.465C481.09 140.279 479.265 143.018 476.806 145.682ZM469.802 137.445C473.943 132.959 476.294 128.765 476.857 124.862C477.434 120.974 476.312 117.372 473.492 114.055L471.123 111.27L445.476 139.055L447.804 141.793C449.221 143.459 450.773 144.598 452.46 145.209C454.162 145.806 455.956 145.904 457.844 145.506C461.605 144.694 465.591 142.007 469.802 137.445Z" fill="#0CFD44"/>
<path d="M500.192 145.608C501.438 144.63 502.615 144.351 503.724 144.77C504.86 145.194 505.838 146.071 506.657 147.402C507.455 148.697 507.837 150.028 507.804 151.395C507.799 152.768 507.173 153.943 505.928 154.92C504.715 155.872 503.521 156.125 502.347 155.678C501.172 155.232 500.191 154.37 499.405 153.093C498.585 151.762 498.206 150.416 498.266 149.053C498.337 147.708 498.979 146.559 500.192 145.608ZM462.725 169.443L465.405 167.34L465.798 167.978C466.41 168.972 467.183 169.694 468.117 170.145C469.051 170.596 470.166 170.313 471.461 169.297L486.752 157.298C487.981 156.334 488.55 155.283 488.457 154.145C488.364 153.008 488.023 151.96 487.433 151.002L487.039 150.363L489.719 148.261L497.602 161.059L476.557 177.573C475.263 178.589 474.64 179.669 474.689 180.815C474.749 181.978 475.079 183.048 475.68 184.023L476.073 184.662L473.394 186.765L462.725 169.443Z" fill="#0CFD44"/>
<path d="M480.576 204.458C479.599 202.362 478.928 200.481 478.564 198.817C478.201 197.153 478.085 195.678 478.218 194.394C478.36 193.128 478.724 192.044 479.31 191.142C479.896 190.239 480.646 189.517 481.559 188.975C482.652 188.326 483.631 188.094 484.495 188.28C485.359 188.466 486.101 188.906 486.721 189.598C487.359 190.28 487.876 191.046 488.272 191.896C486.087 193.194 484.564 194.809 483.704 196.742C482.862 198.664 482.894 200.598 483.8 202.543C484.636 204.337 485.632 205.542 486.788 206.157C487.944 206.773 489.095 206.74 490.242 206.06C491.442 205.347 492.198 204.247 492.511 202.759C492.816 201.253 492.777 198.889 492.397 195.667C492.186 193.791 492.09 192.088 492.109 190.558C492.146 189.018 492.346 187.609 492.712 186.331C493.433 183.757 494.985 181.763 497.368 180.348C498.837 179.476 500.254 179.008 501.62 178.945C503.012 178.89 504.321 179.197 505.548 179.867C506.793 180.526 507.942 181.519 508.995 182.847C510.066 184.164 511.038 185.757 511.909 187.626C512.762 189.458 513.336 191.106 513.63 192.571C513.942 194.025 514.045 195.302 513.94 196.401C513.834 197.5 513.565 198.42 513.132 199.159C512.699 199.898 512.169 200.454 511.542 200.826C510.306 201.56 509.15 201.656 508.074 201.114C507.007 200.59 505.98 199.271 504.995 197.156C506.822 196.071 508.035 194.796 508.633 193.332C509.258 191.876 509.179 190.308 508.396 188.627C507.806 187.362 507.005 186.427 505.992 185.824C504.987 185.239 503.921 185.281 502.792 185.951C502.201 186.302 501.73 186.739 501.378 187.261C501.027 187.783 500.782 188.459 500.642 189.289C500.494 190.148 500.438 191.206 500.475 192.462C500.52 193.737 500.652 195.322 500.872 197.217C501.04 198.756 501.098 200.229 501.044 201.635C501.017 203.049 500.839 204.36 500.51 205.568C500.154 206.768 499.621 207.856 498.91 208.833C498.216 209.799 497.287 210.628 496.123 211.319C493.042 213.148 490.158 213.462 487.471 212.261C484.731 211.043 482.432 208.442 480.576 204.458Z" fill="#0CFD44"/>
<path d="M493.513 240.527C492.809 238.28 492.444 236.111 492.42 234.018C492.401 231.945 492.831 229.984 493.71 228.134C494.589 226.285 495.957 224.575 497.816 223.004C499.675 221.434 502.123 220.043 505.161 218.829C508.372 217.547 511.174 216.864 513.564 216.781C515.955 216.699 518.007 217.065 519.721 217.879C521.441 218.713 522.855 219.926 523.964 221.519C525.099 223.124 525.996 224.98 526.657 227.087C527.274 229.055 527.655 230.86 527.799 232.502C527.963 234.137 527.924 235.573 527.681 236.811C527.168 239.342 526.012 240.967 524.213 241.686C523.574 241.941 522.908 242.072 522.214 242.081C521.546 242.102 520.889 241.917 520.244 241.526C519.593 241.115 518.96 240.451 518.346 239.533C517.738 238.635 517.184 237.391 516.686 235.801C518.001 235.275 519.202 234.661 520.288 233.959C521.4 233.269 522.223 232.493 522.758 231.63C523.319 230.78 523.434 229.828 523.104 228.774C522.823 227.88 522.361 227.17 521.718 226.644C521.093 226.11 520.197 225.786 519.029 225.671C517.867 225.576 516.401 225.725 514.63 226.119C512.86 226.513 510.707 227.217 508.173 228.229C504.149 229.836 501.318 231.605 499.68 233.534C498.043 235.463 497.626 237.71 498.43 240.274C499.066 242.302 500.062 243.917 501.419 245.12C502.801 246.335 504.336 247.03 506.024 247.206C505.89 247.819 505.608 248.345 505.18 248.785C504.771 249.216 504.296 249.54 503.754 249.757C503 250.058 502.164 250.135 501.247 249.987C500.329 249.838 499.412 249.411 498.493 248.704C497.549 247.985 496.641 246.961 495.767 245.632C494.913 244.296 494.161 242.594 493.513 240.527Z" fill="#0CFD44"/>
<path d="M521.412 289.435C515.515 290.651 510.892 290.16 507.541 287.961C504.194 285.783 502.083 281.989 501.207 276.581C500.371 271.419 501.175 267.141 503.619 263.746C504.838 262.028 506.487 260.561 508.568 259.345C510.651 258.15 513.162 257.25 516.1 256.643C521.997 255.426 526.608 255.909 529.935 258.092C533.265 260.295 535.37 264.111 536.249 269.54C537.082 274.682 536.288 278.958 533.867 282.369C532.645 284.067 530.992 285.513 528.909 286.708C526.849 287.919 524.35 288.828 521.412 289.435ZM517.689 266.453C515.465 266.912 513.527 267.439 511.873 268.036C510.219 268.632 508.863 269.305 507.804 270.055C505.668 271.58 504.792 273.524 505.175 275.889C505.558 278.254 506.987 279.723 509.463 280.297C510.692 280.595 512.17 280.673 513.897 280.529C515.627 280.406 517.604 280.115 519.828 279.656C522.072 279.193 524.013 278.675 525.649 278.104C527.306 277.528 528.652 276.857 529.688 276.091C531.762 274.579 532.606 272.63 532.22 270.244C531.833 267.859 530.435 266.384 528.024 265.818C526.818 265.536 525.35 265.456 523.62 265.58C521.911 265.699 519.934 265.99 517.689 266.453Z" fill="#0CFD44"/>
<path d="M539.555 323.39L539.705 337.452L536.299 337.498L536.285 336.217C536.274 335.175 535.922 334.389 535.229 333.856C534.556 333.324 533.342 332.746 531.585 332.124L505.238 323.201L505.148 314.764L532.877 303.886C534.101 303.411 534.907 302.775 535.294 301.978C535.702 301.18 535.899 300.094 535.884 298.719L539.29 298.673L539.502 318.515L536.097 318.562L536.068 315.874C536.053 314.458 535.368 313.759 534.014 313.777C533.493 313.784 532.984 313.854 532.485 313.986C531.987 314.138 531.561 314.279 531.208 314.409L519.13 318.855C517.782 319.395 516.422 319.861 515.051 320.255C513.68 320.669 512.455 320.988 511.374 321.211C511.833 321.309 512.512 321.477 513.41 321.715C514.33 321.952 515.218 322.19 516.074 322.429C516.952 322.688 517.569 322.867 517.924 322.966L530.813 327.135C531.398 327.335 531.983 327.494 532.568 327.611C533.174 327.748 533.768 327.813 534.352 327.805C535.06 327.796 535.536 327.549 535.781 327.067C536.047 326.605 536.176 326.009 536.168 325.28L536.149 323.437L539.555 323.39Z" fill="#0CFD44"/>
<path d="M502.128 360.117C502.849 354.77 504.92 350.943 508.34 348.636C511.714 346.364 516.162 345.702 521.685 346.651C527.578 347.663 531.859 349.803 534.527 353.071C537.161 356.291 538.138 360.419 537.458 365.457C536.829 370.123 535.058 373.526 532.143 375.666C530.697 376.728 528.984 377.437 527.003 377.794C525.023 378.151 522.78 378.114 520.275 377.684L517.041 377.128L519.842 356.347C517.719 356.046 515.87 355.971 514.295 356.123C512.72 356.275 511.392 356.618 510.312 357.15C508.193 358.223 506.953 360.091 506.594 362.754C506.313 364.839 506.53 366.736 507.245 368.443C507.981 370.154 509.066 371.533 510.5 372.583C509.731 373.612 508.628 374.004 507.191 373.757C506.287 373.602 505.458 373.206 504.704 372.569C503.97 371.936 503.364 371.051 502.888 369.912C502.411 368.774 502.093 367.389 501.935 365.756C501.775 364.144 501.839 362.265 502.128 360.117ZM533.345 364.877C533.585 363.102 532.903 361.538 531.3 360.185C529.693 358.853 527.214 357.846 523.86 357.164L522.382 368.128C523.984 368.403 525.434 368.557 526.732 368.589C528.027 368.643 529.144 368.539 530.082 368.278C532.024 367.745 533.112 366.612 533.345 364.877Z" fill="#0CFD44"/>
<path d="M498.009 401.269L497.455 403.256L494.245 402.116L499.981 381.525L503.191 382.664L503.14 382.845C502.71 384.39 502.658 385.662 502.984 386.66C503.324 387.685 504.378 388.511 506.145 389.138L523.638 395.346C525.327 395.945 526.533 395.954 527.256 395.372C527.993 394.818 528.565 393.808 528.973 392.343L529.023 392.163L532.234 393.302L528.762 405.765L523.706 405.327L523.622 405.628C525.292 407.147 526.373 408.688 526.865 410.252C527.377 411.823 527.294 413.823 526.618 416.251C525.304 420.967 523.018 422.747 519.759 421.591C517.913 420.936 516.67 419.745 516.029 418.018C515.388 416.291 515.414 414.183 516.108 411.694C517.659 412.245 518.929 412.486 519.919 412.418C520.928 412.357 521.606 411.705 521.953 410.46C522.243 409.417 522.098 408.428 521.517 407.494C520.955 406.567 520.212 405.752 519.286 405.048C518.646 404.557 517.989 404.125 517.316 403.754C516.629 403.356 515.967 403.021 515.33 402.751C514.693 402.481 514.139 402.263 513.668 402.095L503.243 398.396C501.574 397.803 500.381 397.788 499.663 398.349C498.946 398.911 498.395 399.884 498.009 401.269Z" fill="#0CFD44"/>
<path d="M509.131 451.734L512.104 453.397L506.312 466.587L503.339 464.925C503.892 463.666 503.993 462.534 503.641 461.529C503.308 460.535 502.539 459.345 501.336 457.959C499.783 456.235 498.206 454.462 496.605 452.64C495.023 450.828 493.422 449.006 491.803 447.173C490.943 446.193 489.934 445.035 488.777 443.698C487.62 442.362 486.463 441.026 485.306 439.689C484.158 438.382 483.159 437.253 482.309 436.302C481.568 435.46 480.879 434.659 480.239 433.897C479.582 433.125 478.974 432.394 478.417 431.702C477.322 430.329 476.425 429.019 475.726 427.773C475.019 426.546 474.519 425.339 474.224 424.153C473.948 422.976 473.84 421.728 473.899 420.406C473.994 419.106 474.279 417.684 474.751 416.143C475.216 414.621 475.871 412.897 476.717 410.97L477.157 409.968L480.402 411.784C479.506 413.825 478.98 415.693 478.825 417.388C478.669 419.083 478.81 420.671 479.248 422.151C479.685 423.631 480.374 425.027 481.316 426.338C482.25 427.668 483.348 428.983 484.611 430.284L513.82 433.471C515.004 433.611 515.875 433.433 516.433 432.937C517.008 432.451 517.501 431.741 517.912 430.806L521.212 432.652L513.875 449.362L510.902 447.699C511.405 446.555 511.657 445.567 511.659 444.737C511.671 443.936 511.268 443.306 510.45 442.849C510.141 442.676 509.739 442.534 509.244 442.423C508.767 442.323 508.367 442.254 508.044 442.216C507.004 442.109 505.716 441.947 504.181 441.73C502.637 441.532 501.116 441.31 499.615 441.065C498.125 440.849 496.935 440.67 496.046 440.529C494.673 440.355 493.409 440.112 492.256 439.799C491.094 439.505 490.141 439.199 489.399 438.878C490.056 439.341 490.758 439.96 491.505 440.734C492.271 441.518 492.871 442.163 493.306 442.668L502.547 452.648C502.807 452.984 503.203 453.372 503.734 453.812C504.284 454.262 504.714 454.573 505.023 454.746C505.877 455.224 506.622 455.178 507.258 454.607C507.912 454.046 508.536 453.088 509.131 451.734Z" fill="#0CFD44"/>
</svg>
